# xmcd
#
# Track frame offsets: 
#        150
#        12600
#        27479
#        46428
#        61058
#        73813
#        87209
#        98823
#        118409
#        128166
#        141966
#        154600
#        172069
#        184811
#
# Disc length: 2841 seconds
#
# Revision: 4
# Processed by: cddbd v1.5.2PL0 Copyright (c) Steve Scherf et al.
# Submitted via: ExactAudioCopy v0.95b4
#
DISCID=cb0b170e
DTITLE=Ray Charles - His Greateast Hits
DYEAR=1999
DGENRE=Jazz/Soul/Blues
TTITLE0=I Don't Need No Doctor
TTITLE1=Here We Go Again
TTITLE2=I Can't Stop Loving You
TTITLE3=You Don't Know Me
TTITLE4=Unchain My Heart
TTITLE5=You Are My Sunshine
TTITLE6=In The Heat Of The Night
TTITLE7=That Lucky Old Sun
TTITLE8=Busted
TTITLE9=Don't Change On Me
TTITLE10=My Heart Cries For You
TTITLE11=Careless Love
TTITLE12=I Gotta Woman
TTITLE13=Makin' Whoopee Part 1 and 2
EXTD=YEAR: 2005
EXTT0=
EXTT1=
EXTT2=
EXTT3=
EXTT4=
EXTT5=
EXTT6=
EXTT7=
EXTT8=
EXTT9=
EXTT10=
EXTT11=
EXTT12=
EXTT13=
PLAYORDER=
